# xmcd CD database file
#
# Track frame offsets:
#	150
#	14285
#	33905
#	49143
#	61848
#	74230
#	85144
#	104966
#	116154
#	130929
#	147850
#	162129
#	183457
#	194732
#
# Disc length: 2846 seconds
#
# Revision: 0
# Processed by: cddbd v1.5.2PL0 Copyright (c) Steve Scherf et al.
# Submitted via: CDex 1.51
#
DISCID=d40b1c0e
DTITLE=Swingamajig - Don't Sweat the Small Stuff
DYEAR=2004
DGENRE=Jazz
TTITLE0=S'Wonderful
TTITLE1=Tchavolo Swing
TTITLE2=Do Nothing Till You Hear From Me
TTITLE3=Skip It
TTITLE4=Don't Sweat The Small Stuff
TTITLE5=Doxy
TTITLE6=Nuages
TTITLE7=Swing Gitane
TTITLE8=Ain't Misbehavin'
TTITLE9=Crazy Rhythm
TTITLE10=Dark Eyes
TTITLE11=Honeysuckle Rose
TTITLE12=Blues for Ruth
TTITLE13=Take the 'A' Train
EXTD=YEAR: 2004
EXTT0=
EXTT1=
EXTT2=
EXTT3=
EXTT4=
EXTT5=
EXTT6=
EXTT7=
EXTT8=
EXTT9=
EXTT10=
EXTT11=
EXTT12=
EXTT13=
PLAYORDER=
